<svg xmlns="http://www.w3.org/2000/svg" xmlns:serif="http://www.serif.com/" viewBox="0 0 1024 1024">
  <g id="female" transform="matrix(1.961128,0,0,1.961128,-1369.457776,-334.111147)">
<g id="left-leg" serif:id="left leg" transform="matrix(-0.67904,-0.046802,0.05157,-0.748225,1712.350041,1009.094629)">
                <path d="M1167.362,932.818C1162.294,932.304 1000.879,947.589 1000.519,947.242C1000.173,946.882 1017.961,681.297 1017.961,681.297C1024.014,655.151 1044.869,603.203 1085,601.174C1127.192,599.041 1145.293,634.783 1155.38,663.727C1160.872,679.486 1167.505,911.395 1167.362,932.818Z" style="fill:rgb(13,17,21);"/>
            </g>
<g id="right-leg" serif:id="right leg" transform="matrix(0.651424,-0.072937,-0.083452,-0.745343,264.342524,1031.634024)">
                <path d="M1167.362,932.818C1162.294,932.304 1000.879,947.589 1000.519,947.242C1000.173,946.882 1017.961,681.297 1017.961,681.297C1024.014,655.151 1044.869,603.203 1085,601.174C1127.192,599.041 1145.293,634.783 1155.38,663.727C1160.872,679.486 1167.505,911.395 1167.362,932.818Z" style="fill:rgb(13,17,21);"/>
            </g>
<g id="body" transform="matrix(0.75,0,0,0.75,590.036586,85.632069)">
                <path d="M412.775,33.563C421.535,30.563 547.569,27.902 554.889,30.249C611.502,48.355 656.466,79.856 674.906,137.296C692.36,191.682 720.244,281.085 710.71,326.605C706.364,347.365 705.333,368.653 674.893,397.333L659.187,412.147C659.187,412.147 653.4,416.493 648.533,420.813C632.08,435.387 626.173,439.88 623.853,439.6C622.573,439.453 593.233,407.308 593.233,407.308C593.233,407.308 590.227,399.307 590.227,398.32C590.227,397.32 595.88,388.453 602.8,378.587C609.707,368.733 621.587,351.147 629.173,339.52C641.707,320.32 642.92,317.92 642.28,313.52C641.52,308.213 628.467,238.68 627.24,233.413C626.533,230.373 625.88,230.827 617.16,240.4C592.507,267.4 580.099,282.974 543.179,289.148C522.139,292.668 468.707,294.907 447.773,289.547C415.88,281.387 391.907,268.44 369.413,247.227C364.427,242.52 360.027,238.667 359.64,238.667C359.24,238.667 358.52,242.413 358.013,247C357.507,251.587 355.067,269.6 352.587,287.04L348.067,318.747L353.813,326.373C356.973,330.573 367.56,345.107 377.333,358.667C387.107,372.227 401.887,389.728 405.14,393.621C408.407,397.501 406.802,397.892 408.328,403.33C407.853,402.856 387.564,429.002 381.502,439.717C380.246,441.938 374.642,441.566 375.447,442.297C369.501,437.243 363.867,434.133 351.76,424.52C341.267,416.173 312.667,391.96 312.667,391.96C275.92,358.573 274.272,330.2 269.499,304.28C266.166,286.16 300.498,139.598 315.991,109.585C337.711,67.531 358.922,52.057 412.775,33.563Z" style="fill:rgb(156,162,131);fill-rule:nonzero;"/>
            </g>
<g id="face" transform="matrix(0.75,0,0,0.75,590.036586,84.132069)">
                <path d="M484.667,260.107C481.427,258.707 477.387,254.267 473.6,247.933C471.36,244.173 469.453,242.867 464.347,241.547C444.733,236.52 432.107,225.707 420.24,203.773L416.16,196.227L424.413,201.72C438.493,211.093 449.613,216.36 461.76,218.84C474.067,221.693 486.4,221.84 497.733,219.493C506.853,217.96 514.213,214.773 522.707,209.093C523.613,208.493 524.587,207.747 525.6,206.893C529.68,203.707 533.307,200 536.373,195.813C539.987,191.4 542.667,187.28 542.667,185.493C542.667,184.72 542.813,184.267 543.187,184.133C543.693,184.013 544.667,184.507 546.4,185.72C546.773,186 547.187,186.32 547.64,186.667C550.227,188.707 552.013,189.507 554.12,189.013C554.453,188.987 554.8,188.92 555.133,188.84C558.267,188.053 558.413,188.227 557.373,191.667C553.027,206.067 541.467,223.4 531.187,230.947C527.6,233.573 520.587,237.133 515.613,238.867C507.347,241.72 506.213,242.587 502.653,248.667C500.507,252.333 497.92,256.387 496.907,257.667C494.68,260.453 488.373,261.707 484.667,260.107Z" style="fill:rgb(222,171,151);fill-rule:nonzero;"/>
            </g>
<g id="hair" transform="matrix(0.75,0,0,0.75,590.036586,85.632069)">
                <path d="M438.667,0C467.62,-41.041 499.575,-44.379 534.667,0L534.667,4.133C534.667,6.4 533.693,11.627 532.493,15.733C530.32,23.213 530.32,23.213 533.453,25.28C566.08,46.64 583.4,88.027 578.733,133.44C576.2,158.187 568.573,179.04 559.56,185.92C554.16,190.027 552.08,190.16 547.64,186.667C543.773,183.627 542.667,183.36 542.667,185.493C542.667,186.32 540.013,190.72 536.76,195.267C519.093,220.04 482.147,228.133 448.413,214.653C426.467,205.867 412.6,193.64 403.813,175.333C394.88,156.707 392.893,146.733 392.8,120C392.707,92.667 393.96,86.6 403.987,65.893C411.267,50.853 424.147,35.6 436,28C439.667,25.64 442.667,23.56 442.667,23.36C442.667,23.16 441.773,20.453 440.667,17.333C439.56,14.213 438.667,9.04 438.667,5.827L438.667,0Z" style="fill:rgb(13,17,21);"/>
            </g>
  </g>
</svg>
